{
	"asset":{
		"generator":"Khronos glTF Blender I/O v4.0.44",
		"version":"2.0"
	},
	"scene":0,
	"scenes":[
		{
			"name":"Scene",
			"nodes":[
				4
			]
		}
	],
	"nodes":[
		{
			"mesh":0,
			"name":"NurbsCurve",
			"rotation":[
				0.9985507726669312,
				-0.001928892801515758,
				-0.053782012313604355,
				2.0590190615621395e-05
			],
			"scale":[
				0.6084184646606445,
				1.205776572227478,
				1.0002620220184326
			],
			"translation":[
				-0.056235674768686295,
				1.2285829782485962,
				-0.5893244743347168
			]
		},
		{
			"mesh":1,
			"name":"NurbsCurve.001",
			"rotation":[
				-0.05257904529571533,
				-0.9910182952880859,
				0.026832858100533485,
				0.11999288201332092
			],
			"scale":[
				0.5987511277198792,
				1.1911531686782837,
				0.9782288670539856
			],
			"translation":[
				-0.09933988749980927,
				1.0510025024414062,
				-0.5421587228775024
			]
		},
		{
			"mesh":2,
			"name":"Sphere",
			"rotation":[
				-0.7075009942054749,
				0.052880968898534775,
				0.02174154669046402,
				0.7043956518173218
			],
			"scale":[
				0.057362303137779236,
				0.08457470685243607,
				0.1019514724612236
			],
			"translation":[
				-0.493204265832901,
				1.2440059185028076,
				-0.06461559236049652
			]
		},
		{
			"mesh":3,
			"name":"Sphere.001",
			"rotation":[
				0.7043763995170593,
				0.02174217998981476,
				-0.052881352603435516,
				0.7075201272964478
			],
			"scale":[
				0.057362303137779236,
				0.08457470685243607,
				0.1019514724612236
			],
			"translation":[
				0.43774762749671936,
				1.2384892702102661,
				-0.20342981815338135
			]
		},
		{
			"children":[
				0,
				1,
				2,
				3
			],
			"mesh":4,
			"name":"Cylinder",
			"rotation":[
				0.7062485218048096,
				-0.03647800162434578,
				-0.03414583206176758,
				0.7061985731124878
			],
			"scale":[
				1.4075381755828857,
				0.7871959805488586,
				0.9463469386100769
			],
			"translation":[
				-0.24914120137691498,
				0.6067237854003906,
				-3.3270013332366943
			]
		}
	],
	"materials":[
		{
			"doubleSided":true,
			"name":"Material.002",
			"pbrMetallicRoughness":{
				"baseColorFactor":[
					0.04980773106217384,
					0.04980773106217384,
					0.04980773106217384,
					1
				],
				"metallicFactor":0,
				"roughnessFactor":0.5
			}
		},
		{
			"doubleSided":true,
			"name":"Material.003",
			"pbrMetallicRoughness":{
				"baseColorFactor":[
					0.036898743361234665,
					0.03607399761676788,
					0.03655542433261871,
					1
				],
				"metallicFactor":0,
				"roughnessFactor":0.5
			}
		},
		{
			"doubleSided":true,
			"name":"uparupaEye",
			"pbrMetallicRoughness":{
				"baseColorFactor":[
					0.012283692136406898,
					0.012283692136406898,
					0.012283692136406898,
					1
				],
				"metallicFactor":0,
				"roughnessFactor":0.5
			}
		},
		{
			"doubleSided":true,
			"name":"uparupaEye.003",
			"pbrMetallicRoughness":{
				"baseColorFactor":[
					0.012283692136406898,
					0.012283692136406898,
					0.012283692136406898,
					1
				],
				"metallicFactor":0,
				"roughnessFactor":0.5
			}
		},
		{
			"doubleSided":true,
			"name":"uparupaBody",
			"pbrMetallicRoughness":{
				"baseColorFactor":[
					0.7200552225112915,
					0.8012131452560425,
					0.6978577375411987,
					1
				],
				"metallicFactor":0,
				"roughnessFactor":0.5
			}
		},
		{
			"doubleSided":true,
			"name":"uparupaHorn",
			"pbrMetallicRoughness":{
				"baseColorFactor":[
					0.8007893562316895,
					0.16966232657432556,
					0.29414263367652893,
					1
				],
				"metallicFactor":0,
				"roughnessFactor":0.5
			}
		}
	],
	"meshes":[
		{
			"name":"NurbsCurve.001",
			"primitives":[
				{
					"attributes":{
						"POSITION":0,
						"NORMAL":1,
						"TEXCOORD_0":2
					},
					"indices":3,
					"material":0
				}
			]
		},
		{
			"name":"NurbsCurve.002",
			"primitives":[
				{
					"attributes":{
						"POSITION":4,
						"NORMAL":5,
						"TEXCOORD_0":6
					},
					"indices":3,
					"material":1
				}
			]
		},
		{
			"name":"Sphere",
			"primitives":[
				{
					"attributes":{
						"POSITION":7,
						"NORMAL":8,
						"TEXCOORD_0":9
					},
					"indices":10,
					"material":2
				}
			]
		},
		{
			"name":"Sphere.003",
			"primitives":[
				{
					"attributes":{
						"POSITION":11,
						"NORMAL":12,
						"TEXCOORD_0":13
					},
					"indices":10,
					"material":3
				}
			]
		},
		{
			"name":"Cylinder.001",
			"primitives":[
				{
					"attributes":{
						"POSITION":14,
						"NORMAL":15,
						"TEXCOORD_0":16
					},
					"indices":17,
					"material":4
				},
				{
					"attributes":{
						"POSITION":18,
						"NORMAL":19,
						"TEXCOORD_0":20
					},
					"indices":21,
					"material":5
				}
			]
		}
	],
	"accessors":[
		{
			"bufferView":0,
			"componentType":5126,
			"count":828,
			"max":[
				0.9402217864990234,
				0.03417946770787239,
				-0.8225706219673157
			],
			"min":[
				0.01051262766122818,
				-0.028909403830766678,
				-0.9628612995147705
			],
			"type":"VEC3"
		},
		{
			"bufferView":1,
			"componentType":5126,
			"count":828,
			"type":"VEC3"
		},
		{
			"bufferView":2,
			"componentType":5126,
			"count":828,
			"type":"VEC2"
		},
		{
			"bufferView":3,
			"componentType":5123,
			"count":4620,
			"type":"SCALAR"
		},
		{
			"bufferView":4,
			"componentType":5126,
			"count":828,
			"max":[
				0.9396703243255615,
				0.14832690358161926,
				-0.751925528049469
			],
			"min":[
				0.016589229926466942,
				0.003405362367630005,
				-0.9125207662582397
			],
			"type":"VEC3"
		},
		{
			"bufferView":5,
			"componentType":5126,
			"count":828,
			"type":"VEC3"
		},
		{
			"bufferView":6,
			"componentType":5126,
			"count":828,
			"type":"VEC2"
		},
		{
			"bufferView":7,
			"componentType":5126,
			"count":2087,
			"max":[
				1.4018982648849487,
				0.9952226281166077,
				0.9999993443489075
			],
			"min":[
				-0.9999990463256836,
				-0.9807852506637573,
				-1.084586262702942
			],
			"type":"VEC3"
		},
		{
			"bufferView":8,
			"componentType":5126,
			"count":2087,
			"type":"VEC3"
		},
		{
			"bufferView":9,
			"componentType":5126,
			"count":2087,
			"type":"VEC2"
		},
		{
			"bufferView":10,
			"componentType":5123,
			"count":3168,
			"type":"SCALAR"
		},
		{
			"bufferView":11,
			"componentType":5126,
			"count":2087,
			"max":[
				1.4018982648849487,
				0.9952226281166077,
				0.9999993443489075
			],
			"min":[
				-0.9999990463256836,
				-0.9807852506637573,
				-1.084586262702942
			],
			"type":"VEC3"
		},
		{
			"bufferView":12,
			"componentType":5126,
			"count":2087,
			"type":"VEC3"
		},
		{
			"bufferView":13,
			"componentType":5126,
			"count":2087,
			"type":"VEC2"
		},
		{
			"bufferView":14,
			"componentType":5126,
			"count":34124,
			"max":[
				1.0124820470809937,
				1.2953689098358154,
				0.99359530210495
			],
			"min":[
				-0.99359530210495,
				-2.4070212841033936,
				-0.99359530210495
			],
			"type":"VEC3"
		},
		{
			"bufferView":15,
			"componentType":5126,
			"count":34124,
			"type":"VEC3"
		},
		{
			"bufferView":16,
			"componentType":5126,
			"count":34124,
			"type":"VEC2"
		},
		{
			"bufferView":17,
			"componentType":5123,
			"count":56928,
			"type":"SCALAR"
		},
		{
			"bufferView":18,
			"componentType":5126,
			"count":3584,
			"max":[
				1.021934986114502,
				1.3189016580581665,
				0.32791781425476074
			],
			"min":[
				-1.027359127998352,
				1.1336055994033813,
				-1.018196702003479
			],
			"type":"VEC3"
		},
		{
			"bufferView":19,
			"componentType":5126,
			"count":3584,
			"type":"VEC3"
		},
		{
			"bufferView":20,
			"componentType":5126,
			"count":3584,
			"type":"VEC2"
		},
		{
			"bufferView":21,
			"componentType":5123,
			"count":5376,
			"type":"SCALAR"
		}
	],
	"bufferViews":[
		{
			"buffer":0,
			"byteLength":9936,
			"byteOffset":0,
			"target":34962
		},
		{
			"buffer":0,
			"byteLength":9936,
			"byteOffset":9936,
			"target":34962
		},
		{
			"buffer":0,
			"byteLength":6624,
			"byteOffset":19872,
			"target":34962
		},
		{
			"buffer":0,
			"byteLength":9240,
			"byteOffset":26496,
			"target":34963
		},
		{
			"buffer":0,
			"byteLength":9936,
			"byteOffset":35736,
			"target":34962
		},
		{
			"buffer":0,
			"byteLength":9936,
			"byteOffset":45672,
			"target":34962
		},
		{
			"buffer":0,
			"byteLength":6624,
			"byteOffset":55608,
			"target":34962
		},
		{
			"buffer":0,
			"byteLength":25044,
			"byteOffset":62232,
			"target":34962
		},
		{
			"buffer":0,
			"byteLength":25044,
			"byteOffset":87276,
			"target":34962
		},
		{
			"buffer":0,
			"byteLength":16696,
			"byteOffset":112320,
			"target":34962
		},
		{
			"buffer":0,
			"byteLength":6336,
			"byteOffset":129016,
			"target":34963
		},
		{
			"buffer":0,
			"byteLength":25044,
			"byteOffset":135352,
			"target":34962
		},
		{
			"buffer":0,
			"byteLength":25044,
			"byteOffset":160396,
			"target":34962
		},
		{
			"buffer":0,
			"byteLength":16696,
			"byteOffset":185440,
			"target":34962
		},
		{
			"buffer":0,
			"byteLength":409488,
			"byteOffset":202136,
			"target":34962
		},
		{
			"buffer":0,
			"byteLength":409488,
			"byteOffset":611624,
			"target":34962
		},
		{
			"buffer":0,
			"byteLength":272992,
			"byteOffset":1021112,
			"target":34962
		},
		{
			"buffer":0,
			"byteLength":113856,
			"byteOffset":1294104,
			"target":34963
		},
		{
			"buffer":0,
			"byteLength":43008,
			"byteOffset":1407960,
			"target":34962
		},
		{
			"buffer":0,
			"byteLength":43008,
			"byteOffset":1450968,
			"target":34962
		},
		{
			"buffer":0,
			"byteLength":28672,
			"byteOffset":1493976,
			"target":34962
		},
		{
			"buffer":0,
			"byteLength":10752,
			"byteOffset":1522648,
			"target":34963
		}
	],
	"buffers":[
		{
			"byteLength":1533400,
			"uri":"uparupa1.bin"
		}
	]
}
